<mxfile host="Electron" agent="Mozilla/5.0 (Windows NT 10.0; Win64; x64) AppleWebKit/537.36 (KHTML, like Gecko) draw.io/28.0.6 Chrome/138.0.7204.100 Electron/37.2.3 Safari/537.36" version="28.0.6">
  <diagram name="Page-1" id="_I9fZct2sAev_7LaQ4CM">
    <mxGraphModel dx="1231" dy="581" grid="1" gridSize="10" guides="1" tooltips="1" connect="1" arrows="1" fold="1" page="1" pageScale="1" pageWidth="1200" pageHeight="1920" math="0" shadow="0">
      <root>
        <mxCell id="0" />
        <mxCell id="1" parent="0" />
        <mxCell id="Ft-Jv2bdAWg3xhlpRPt0-1" value="" style="rounded=0;whiteSpace=wrap;html=1;" vertex="1" parent="1">
          <mxGeometry x="40" y="15" width="1140" height="585" as="geometry" />
        </mxCell>
        <mxCell id="xoIIDdaGF0mgVzuR2Qlp-13" value="" style="shape=step;perimeter=stepPerimeter;whiteSpace=wrap;html=1;fixedSize=1;fillColor=#d5e8d4;strokeColor=#82b366;" parent="1" vertex="1">
          <mxGeometry x="70" y="40" width="250" height="40" as="geometry" />
        </mxCell>
        <mxCell id="OrjkNM-9T2cvx1dsKVb5-52" value="" style="rounded=0;whiteSpace=wrap;html=1;fillColor=#eeeeee;strokeColor=#36393d;" parent="1" vertex="1">
          <mxGeometry x="620" y="160" width="530" height="400" as="geometry" />
        </mxCell>
        <mxCell id="OrjkNM-9T2cvx1dsKVb5-51" value="" style="rounded=0;whiteSpace=wrap;html=1;fillColor=#eeeeee;strokeColor=#36393d;" parent="1" vertex="1">
          <mxGeometry x="80" y="160" width="520" height="400" as="geometry" />
        </mxCell>
        <mxCell id="OrjkNM-9T2cvx1dsKVb5-13" value="crm_sales_details" style="swimlane;fontStyle=1;childLayout=stackLayout;horizontal=1;startSize=30;horizontalStack=0;resizeParent=1;resizeParentMax=0;resizeLast=0;collapsible=1;marginBottom=0;whiteSpace=wrap;html=1;rounded=1;fillColor=#ffcccc;strokeColor=#36393d;fontSize=14;" parent="1" vertex="1">
          <mxGeometry x="120" y="280" width="170" height="110" as="geometry" />
        </mxCell>
        <mxCell id="OrjkNM-9T2cvx1dsKVb5-14" value="prd_key" style="text;strokeColor=none;fillColor=none;align=left;verticalAlign=middle;spacingLeft=4;spacingRight=4;overflow=hidden;points=[[0,0.5],[1,0.5]];portConstraint=eastwest;rotatable=0;whiteSpace=wrap;html=1;fontSize=14;" parent="OrjkNM-9T2cvx1dsKVb5-13" vertex="1">
          <mxGeometry y="30" width="170" height="30" as="geometry" />
        </mxCell>
        <mxCell id="OrjkNM-9T2cvx1dsKVb5-15" value="cst_id" style="text;strokeColor=none;fillColor=none;align=left;verticalAlign=middle;spacingLeft=4;spacingRight=4;overflow=hidden;points=[[0,0.5],[1,0.5]];portConstraint=eastwest;rotatable=0;whiteSpace=wrap;html=1;fontSize=14;" parent="OrjkNM-9T2cvx1dsKVb5-13" vertex="1">
          <mxGeometry y="60" width="170" height="30" as="geometry" />
        </mxCell>
        <mxCell id="xoIIDdaGF0mgVzuR2Qlp-8" value="Sales" style="text;html=1;strokeColor=#d6b656;fillColor=#fff2cc;align=center;verticalAlign=middle;whiteSpace=wrap;overflow=hidden;rounded=1;fontSize=14;fontStyle=1" parent="OrjkNM-9T2cvx1dsKVb5-13" vertex="1">
          <mxGeometry y="90" width="170" height="20" as="geometry" />
        </mxCell>
        <mxCell id="OrjkNM-9T2cvx1dsKVb5-16" value="Transactional records about sales and orders" style="text;html=1;align=center;verticalAlign=middle;whiteSpace=wrap;rounded=1;fillColor=#f9f7ed;strokeColor=none;glass=1;" parent="1" vertex="1">
          <mxGeometry x="120" y="240" width="170" height="30" as="geometry" />
        </mxCell>
        <mxCell id="OrjkNM-9T2cvx1dsKVb5-17" value="crm_prd_info" style="swimlane;fontStyle=1;childLayout=stackLayout;horizontal=1;startSize=30;horizontalStack=0;resizeParent=1;resizeParentMax=0;resizeLast=0;collapsible=1;marginBottom=0;whiteSpace=wrap;html=1;rounded=1;fillColor=#ffcccc;strokeColor=#36393d;fontSize=14;" parent="1" vertex="1">
          <mxGeometry x="360" y="240" width="170" height="80" as="geometry" />
        </mxCell>
        <mxCell id="OrjkNM-9T2cvx1dsKVb5-18" value="prd_key" style="text;strokeColor=none;fillColor=none;align=left;verticalAlign=middle;spacingLeft=4;spacingRight=4;overflow=hidden;points=[[0,0.5],[1,0.5]];portConstraint=eastwest;rotatable=0;whiteSpace=wrap;html=1;fontSize=14;" parent="OrjkNM-9T2cvx1dsKVb5-17" vertex="1">
          <mxGeometry y="30" width="170" height="30" as="geometry" />
        </mxCell>
        <mxCell id="xoIIDdaGF0mgVzuR2Qlp-1" value="Products" style="text;html=1;strokeColor=#d6b656;fillColor=#fff2cc;align=center;verticalAlign=middle;whiteSpace=wrap;overflow=hidden;fontSize=14;fontStyle=1;rounded=1;" parent="OrjkNM-9T2cvx1dsKVb5-17" vertex="1">
          <mxGeometry y="60" width="170" height="20" as="geometry" />
        </mxCell>
        <mxCell id="OrjkNM-9T2cvx1dsKVb5-20" value="Current &amp;amp; History Product Information" style="text;html=1;align=center;verticalAlign=middle;whiteSpace=wrap;rounded=1;fillColor=#f9f7ed;strokeColor=none;glass=1;" parent="1" vertex="1">
          <mxGeometry x="360" y="200" width="170" height="30" as="geometry" />
        </mxCell>
        <mxCell id="OrjkNM-9T2cvx1dsKVb5-21" value="crm_cust_info" style="swimlane;fontStyle=1;childLayout=stackLayout;horizontal=1;startSize=30;horizontalStack=0;resizeParent=1;resizeParentMax=0;resizeLast=0;collapsible=1;marginBottom=0;whiteSpace=wrap;html=1;rounded=1;fillColor=#ffcccc;strokeColor=#36393d;fontSize=14;" parent="1" vertex="1">
          <mxGeometry x="360" y="370" width="170" height="110" as="geometry" />
        </mxCell>
        <mxCell id="OrjkNM-9T2cvx1dsKVb5-22" value="cst_id" style="text;strokeColor=none;fillColor=none;align=left;verticalAlign=middle;spacingLeft=4;spacingRight=4;overflow=hidden;points=[[0,0.5],[1,0.5]];portConstraint=eastwest;rotatable=0;whiteSpace=wrap;html=1;fontSize=14;" parent="OrjkNM-9T2cvx1dsKVb5-21" vertex="1">
          <mxGeometry y="30" width="170" height="30" as="geometry" />
        </mxCell>
        <mxCell id="OrjkNM-9T2cvx1dsKVb5-23" value="cst_key" style="text;strokeColor=none;fillColor=none;align=left;verticalAlign=middle;spacingLeft=4;spacingRight=4;overflow=hidden;points=[[0,0.5],[1,0.5]];portConstraint=eastwest;rotatable=0;whiteSpace=wrap;html=1;fontSize=14;" parent="OrjkNM-9T2cvx1dsKVb5-21" vertex="1">
          <mxGeometry y="60" width="170" height="30" as="geometry" />
        </mxCell>
        <mxCell id="xoIIDdaGF0mgVzuR2Qlp-7" value="Customers" style="text;html=1;strokeColor=#d6b656;fillColor=#fff2cc;align=center;verticalAlign=middle;whiteSpace=wrap;overflow=hidden;fontSize=14;fontStyle=1;rounded=1;" parent="OrjkNM-9T2cvx1dsKVb5-21" vertex="1">
          <mxGeometry y="90" width="170" height="20" as="geometry" />
        </mxCell>
        <mxCell id="OrjkNM-9T2cvx1dsKVb5-24" value="Customer Informstion" style="text;html=1;align=center;verticalAlign=middle;whiteSpace=wrap;rounded=1;fillColor=#f9f7ed;strokeColor=none;glass=1;" parent="1" vertex="1">
          <mxGeometry x="360" y="330" width="170" height="30" as="geometry" />
        </mxCell>
        <mxCell id="OrjkNM-9T2cvx1dsKVb5-25" value="" style="edgeStyle=orthogonalEdgeStyle;rounded=0;orthogonalLoop=1;jettySize=auto;html=1;" parent="1" source="OrjkNM-9T2cvx1dsKVb5-14" target="OrjkNM-9T2cvx1dsKVb5-18" edge="1">
          <mxGeometry relative="1" as="geometry">
            <mxPoint x="320" y="330" as="targetPoint" />
            <Array as="points">
              <mxPoint x="325" y="325" />
              <mxPoint x="325" y="285" />
            </Array>
          </mxGeometry>
        </mxCell>
        <mxCell id="OrjkNM-9T2cvx1dsKVb5-26" style="edgeStyle=orthogonalEdgeStyle;rounded=0;orthogonalLoop=1;jettySize=auto;html=1;entryX=0;entryY=0.5;entryDx=0;entryDy=0;" parent="1" source="OrjkNM-9T2cvx1dsKVb5-15" target="OrjkNM-9T2cvx1dsKVb5-22" edge="1">
          <mxGeometry relative="1" as="geometry" />
        </mxCell>
        <mxCell id="OrjkNM-9T2cvx1dsKVb5-33" value="erp_px_cat_g1v2" style="swimlane;fontStyle=1;childLayout=stackLayout;horizontal=1;startSize=30;horizontalStack=0;resizeParent=1;resizeParentMax=0;resizeLast=0;collapsible=1;marginBottom=0;whiteSpace=wrap;html=1;rounded=1;fillColor=#b1ddf0;strokeColor=#10739e;fontSize=14;align=center;" parent="1" vertex="1">
          <mxGeometry x="750" y="240" width="170" height="80" as="geometry" />
        </mxCell>
        <mxCell id="OrjkNM-9T2cvx1dsKVb5-34" value="id" style="text;strokeColor=none;fillColor=none;align=left;verticalAlign=middle;spacingLeft=4;spacingRight=4;overflow=hidden;points=[[0,0.5],[1,0.5]];portConstraint=eastwest;rotatable=0;whiteSpace=wrap;html=1;fontSize=14;" parent="OrjkNM-9T2cvx1dsKVb5-33" vertex="1">
          <mxGeometry y="30" width="170" height="30" as="geometry" />
        </mxCell>
        <mxCell id="xoIIDdaGF0mgVzuR2Qlp-4" value="Products" style="text;html=1;strokeColor=#d6b656;fillColor=#fff2cc;align=center;verticalAlign=middle;whiteSpace=wrap;overflow=hidden;fontSize=14;fontStyle=1;rounded=1;" parent="OrjkNM-9T2cvx1dsKVb5-33" vertex="1">
          <mxGeometry y="60" width="170" height="20" as="geometry" />
        </mxCell>
        <mxCell id="OrjkNM-9T2cvx1dsKVb5-35" value="Product Categories" style="text;html=1;align=center;verticalAlign=middle;whiteSpace=wrap;rounded=1;fillColor=#f9f7ed;strokeColor=none;glass=1;" parent="1" vertex="1">
          <mxGeometry x="750" y="200" width="170" height="30" as="geometry" />
        </mxCell>
        <mxCell id="OrjkNM-9T2cvx1dsKVb5-36" value="erp_cust_az12" style="swimlane;fontStyle=1;childLayout=stackLayout;horizontal=1;startSize=30;horizontalStack=0;resizeParent=1;resizeParentMax=0;resizeLast=0;collapsible=1;marginBottom=0;whiteSpace=wrap;html=1;rounded=1;fillColor=#b1ddf0;strokeColor=#10739e;fontSize=14;" parent="1" vertex="1">
          <mxGeometry x="940" y="350" width="170" height="80" as="geometry" />
        </mxCell>
        <mxCell id="OrjkNM-9T2cvx1dsKVb5-37" value="cid" style="text;strokeColor=none;fillColor=none;align=left;verticalAlign=middle;spacingLeft=4;spacingRight=4;overflow=hidden;points=[[0,0.5],[1,0.5]];portConstraint=eastwest;rotatable=0;whiteSpace=wrap;html=1;fontSize=14;" parent="OrjkNM-9T2cvx1dsKVb5-36" vertex="1">
          <mxGeometry y="30" width="170" height="30" as="geometry" />
        </mxCell>
        <mxCell id="xoIIDdaGF0mgVzuR2Qlp-5" value="Customers" style="text;html=1;strokeColor=#d6b656;fillColor=#fff2cc;align=center;verticalAlign=middle;whiteSpace=wrap;overflow=hidden;fontSize=14;fontStyle=1;rounded=1;" parent="OrjkNM-9T2cvx1dsKVb5-36" vertex="1">
          <mxGeometry y="60" width="170" height="20" as="geometry" />
        </mxCell>
        <mxCell id="OrjkNM-9T2cvx1dsKVb5-39" value="Extra Customer Information (Birthdate)" style="text;html=1;align=center;verticalAlign=middle;whiteSpace=wrap;rounded=1;fillColor=#f9f7ed;strokeColor=none;glass=1;" parent="1" vertex="1">
          <mxGeometry x="940" y="310" width="170" height="30" as="geometry" />
        </mxCell>
        <mxCell id="OrjkNM-9T2cvx1dsKVb5-45" style="edgeStyle=orthogonalEdgeStyle;rounded=0;orthogonalLoop=1;jettySize=auto;html=1;entryX=0;entryY=0.5;entryDx=0;entryDy=0;" parent="1" source="OrjkNM-9T2cvx1dsKVb5-18" target="OrjkNM-9T2cvx1dsKVb5-34" edge="1">
          <mxGeometry relative="1" as="geometry">
            <mxPoint x="560" y="285" as="targetPoint" />
          </mxGeometry>
        </mxCell>
        <mxCell id="OrjkNM-9T2cvx1dsKVb5-46" value="erp_loc_a101" style="swimlane;fontStyle=1;childLayout=stackLayout;horizontal=1;startSize=30;horizontalStack=0;resizeParent=1;resizeParentMax=0;resizeLast=0;collapsible=1;marginBottom=0;whiteSpace=wrap;html=1;rounded=1;fillColor=#b1ddf0;strokeColor=#10739e;fontSize=14;verticalAlign=middle;" parent="1" vertex="1">
          <mxGeometry x="750" y="460" width="170" height="80" as="geometry" />
        </mxCell>
        <mxCell id="OrjkNM-9T2cvx1dsKVb5-47" value="cid" style="text;strokeColor=none;fillColor=none;align=left;verticalAlign=middle;spacingLeft=4;spacingRight=4;overflow=hidden;points=[[0,0.5],[1,0.5]];portConstraint=eastwest;rotatable=0;whiteSpace=wrap;html=1;fontSize=14;" parent="OrjkNM-9T2cvx1dsKVb5-46" vertex="1">
          <mxGeometry y="30" width="170" height="30" as="geometry" />
        </mxCell>
        <mxCell id="xoIIDdaGF0mgVzuR2Qlp-6" value="Customers" style="text;html=1;strokeColor=#d6b656;fillColor=#fff2cc;align=center;verticalAlign=middle;whiteSpace=wrap;overflow=hidden;fontSize=14;fontStyle=1;rounded=1;" parent="OrjkNM-9T2cvx1dsKVb5-46" vertex="1">
          <mxGeometry y="60" width="170" height="20" as="geometry" />
        </mxCell>
        <mxCell id="OrjkNM-9T2cvx1dsKVb5-48" value="Location of Customers (Country)" style="text;html=1;align=center;verticalAlign=middle;whiteSpace=wrap;rounded=1;fillColor=#f9f7ed;strokeColor=none;glass=1;" parent="1" vertex="1">
          <mxGeometry x="750" y="420" width="170" height="30" as="geometry" />
        </mxCell>
        <mxCell id="OrjkNM-9T2cvx1dsKVb5-49" style="edgeStyle=orthogonalEdgeStyle;rounded=0;orthogonalLoop=1;jettySize=auto;html=1;entryX=0;entryY=0.5;entryDx=0;entryDy=0;" parent="1" source="OrjkNM-9T2cvx1dsKVb5-23" target="OrjkNM-9T2cvx1dsKVb5-47" edge="1">
          <mxGeometry relative="1" as="geometry" />
        </mxCell>
        <mxCell id="OrjkNM-9T2cvx1dsKVb5-50" style="edgeStyle=orthogonalEdgeStyle;rounded=0;orthogonalLoop=1;jettySize=auto;html=1;entryX=1;entryY=0.5;entryDx=0;entryDy=0;" parent="1" source="OrjkNM-9T2cvx1dsKVb5-37" target="OrjkNM-9T2cvx1dsKVb5-23" edge="1">
          <mxGeometry relative="1" as="geometry" />
        </mxCell>
        <mxCell id="OrjkNM-9T2cvx1dsKVb5-53" value="&lt;font style=&quot;font-size: 20px;&quot;&gt;&lt;b&gt;CRM&lt;/b&gt;&lt;/font&gt;" style="rounded=1;whiteSpace=wrap;html=1;fillColor=#ffcccc;strokeColor=#36393d;" parent="1" vertex="1">
          <mxGeometry x="280" y="120" width="120" height="60" as="geometry" />
        </mxCell>
        <mxCell id="OrjkNM-9T2cvx1dsKVb5-54" value="&lt;font style=&quot;font-size: 20px;&quot;&gt;&lt;b&gt;ERP&lt;/b&gt;&lt;/font&gt;" style="rounded=1;whiteSpace=wrap;html=1;fillColor=#b1ddf0;strokeColor=#10739e;" parent="1" vertex="1">
          <mxGeometry x="825" y="120" width="120" height="60" as="geometry" />
        </mxCell>
        <mxCell id="xoIIDdaGF0mgVzuR2Qlp-9" value="INTEGRATION MODEL" style="text;html=1;align=center;verticalAlign=middle;whiteSpace=wrap;rounded=0;fontStyle=1;fontSize=18;" parent="1" vertex="1">
          <mxGeometry x="70" y="45" width="260" height="30" as="geometry" />
        </mxCell>
        <mxCell id="xoIIDdaGF0mgVzuR2Qlp-10" value="&lt;font style=&quot;font-size: 11px; font-weight: normal;&quot;&gt;How two tables are related&lt;/font&gt;" style="text;html=1;align=center;verticalAlign=middle;whiteSpace=wrap;rounded=0;fontStyle=1;fontSize=18;" parent="1" vertex="1">
          <mxGeometry x="270" y="40" width="260" height="30" as="geometry" />
        </mxCell>
      </root>
    </mxGraphModel>
  </diagram>
</mxfile>
